<svg xmlns="http://www.w3.org/2000/svg" version="1.1" xmlns:xlink="http://www.w3.org/1999/xlink" xmlns:svgjs="http://svgjs.dev/svgjs" width="1000" height="1000"><style>
    #light-icon {
      display: inline;
    }
    #dark-icon {
      display: none;
    }

    @media (prefers-color-scheme: dark) {
      #light-icon {
        display: none;
      }
      #dark-icon {
        display: inline;
      }
    }
  </style><g id="light-icon"><svg xmlns="http://www.w3.org/2000/svg" version="1.1" xmlns:xlink="http://www.w3.org/1999/xlink" xmlns:svgjs="http://svgjs.dev/svgjs" width="1000" height="1000"><g clip-path="url(#SvgjsClipPath1167)"><rect width="1000" height="1000" fill="#ffffff"></rect><g transform="matrix(0.9259259259259259,0,0,0.9259259259259259,0,0.000001638023945815803)"><svg xmlns="http://www.w3.org/2000/svg" version="1.1" xmlns:xlink="http://www.w3.org/1999/xlink" xmlns:svgjs="http://svgjs.dev/svgjs" width="1080" height="1080"><svg xmlns="http://www.w3.org/2000/svg" xmlns:xlink="http://www.w3.org/1999/xlink" version="1.1" width="1080" height="1080" viewBox="0 0 1080 1080" xml:space="preserve">
<desc>Created with Fabric.js 5.2.4</desc>
<defs>
<clipPath id="SvgjsClipPath1167"><rect width="1000" height="1000" x="0" y="0" rx="500" ry="500"></rect></clipPath></defs>
<rect x="0" y="0" width="100%" height="100%" fill="transparent"></rect>
<g transform="matrix(1 0 0 1 540 540)" id="f017b0b4-1826-4fe6-bd03-384e78c292b5">
</g>
<g transform="matrix(1 0 0 1 540 540)" id="e881d8cc-768d-413c-9a77-b564ba569543">
<rect style="stroke: none; stroke-width: 1; stroke-dasharray: none; stroke-linecap: butt; stroke-dashoffset: 0; stroke-linejoin: miter; stroke-miterlimit: 4; fill: rgb(255,255,255); fill-rule: nonzero; opacity: 1; visibility: hidden;" vector-effect="non-scaling-stroke" x="-540" y="-540" rx="0" ry="0" width="1080" height="1080"></rect>
</g>
<g transform="matrix(0.28 0 0 -0.28 540 540)">
<path style="stroke: none; stroke-width: 1; stroke-dasharray: none; stroke-linecap: butt; stroke-dashoffset: 0; stroke-linejoin: miter; stroke-miterlimit: 4; fill: rgb(49,94,137); fill-rule: nonzero; opacity: 1;" vector-effect="non-scaling-stroke" transform=" translate(-1890, -1930)" d="M 0 1930 L 0 0 L 1890 0 L 3780 0 L 3780 1930 L 3780 3860 L 1890 3860 L 0 3860 L 0 1930 z M 2135 3055 C 2301 3025 2469 2954 2610 2854 C 2697 2793 2780 2718 2780 2702 C 2780 2695 2765 2690 2747 2690 C 2721 2690 2692 2706 2621 2760 C 2429 2905 2265 2971 2023 3000 C 1736 3035 1386 2920 1164 2719 C 1116 2676 1107 2671 1078 2677 C 1060 2680 1043 2685 1041 2687 C 1032 2694 1126 2784 1205 2842 C 1460 3034 1807 3113 2135 3055 z M 2280 2750 C 2280 2735 2273 2730 2254 2730 C 2216 2730 2164 2702 2143 2672 C 2127 2648 2124 2613 2120 2361 L 2115 2076 L 2085 2068 C 2069 2063 2044 2057 2030 2054 C 2017 2051 2001 2045 1995 2041 C 1990 2036 1955 2023 1919 2011 C 1826 1981 1782 1927 1815 1884 C 1834 1859 1834 1830 1815 1830 C 1793 1830 1732 1899 1724 1933 C 1715 1976 1743 2009 1830 2053 C 1897 2087 1911 2091 1963 2088 L 2021 2084 L 2018 2371 C 2015 2641 2014 2659 1995 2680 C 1971 2707 1920 2730 1885 2730 C 1858 2730 1857 2731 1866 2754 C 1871 2768 1899 2770 2076 2770 C 2273 2770 2280 2769 2280 2750 z M 944 2581 C 981 2575 1000 2565 1018 2544 C 1038 2519 1141 2317 1239 2108 C 1256 2070 1274 2040 1278 2040 C 1283 2040 1302 2075 1320 2118 C 1338 2160 1384 2258 1422 2335 C 1473 2439 1490 2482 1486 2503 C 1483 2518 1485 2530 1490 2530 C 1496 2530 1505 2541 1510 2555 C 1520 2582 1517 2581 1757 2585 C 1784 2585 1796 2580 1798 2569 C 1800 2557 1790 2551 1755 2547 C 1697 2539 1658 2516 1634 2476 C 1617 2448 1615 2414 1610 2065 C 1604 1655 1604 1657 1544 1538 C 1486 1422 1338 1308 1229 1294 C 1084 1274 940 1401 940 1547 C 940 1562 951 1598 964 1627 C 1021 1749 1196 1768 1267 1661 C 1297 1617 1296 1585 1265 1554 C 1234 1524 1224 1528 1215 1577 C 1205 1633 1175 1660 1124 1660 C 1088 1660 1077 1655 1051 1625 C 1026 1597 1020 1580 1020 1545 C 1020 1465 1053 1412 1125 1379 C 1213 1338 1319 1368 1401 1458 C 1459 1521 1484 1571 1499 1656 C 1512 1726 1514 2328 1501 2314 C 1496 2309 1458 2226 1415 2130 C 1373 2034 1323 1921 1303 1880 L 1269 1806 L 1240 1855 C 1224 1883 1169 1996 1119 2108 C 1068 2219 1026 2309 1024 2308 C 1023 2306 1019 2215 1015 2105 C 1012 1995 1005 1889 1000 1870 C 984 1811 820 1671 820 1718 C 820 1722 844 1756 872 1794 L 925 1864 L 932 2034 C 936 2128 938 2251 937 2307 C 934 2402 932 2412 905 2451 C 888 2475 855 2504 830 2518 C 792 2538 775 2541 718 2537 C 652 2533 650 2534 650 2556 C 650 2569 657 2580 668 2583 C 697 2591 892 2589 944 2581 z M 2540 2569 C 2540 2556 2533 2550 2518 2550 C 2484 2550 2433 2515 2413 2478 C 2398 2450 2395 2414 2392 2242 C 2390 2130 2391 2031 2395 2023 C 2400 2009 2403 2009 2419 2026 C 2428 2037 2445 2059 2456 2075 C 2483 2117 2568 2231 2593 2257 C 2611 2278 2663 2348 2735 2451 C 2751 2473 2758 2493 2754 2504 C 2746 2524 2699 2550 2670 2550 C 2655 2550 2650 2555 2652 2568 C 2655 2583 2676 2585 2888 2588 C 3120 2590 3160 2586 3160 2556 C 3160 2546 3137 2541 3072 2538 C 2921 2531 2860 2488 2687 2265 C 2631 2194 2574 2121 2559 2103 L 2531 2071 L 2579 1983 C 2606 1935 2674 1801 2731 1686 C 2844 1459 2887 1400 2993 1327 C 3060 1281 3108 1272 3170 1295 C 3248 1324 3260 1325 3260 1302 C 3260 1275 3208 1232 3164 1224 C 3144 1220 3098 1220 3062 1222 C 2968 1229 2892 1267 2809 1350 C 2748 1412 2733 1436 2620 1661 C 2553 1795 2489 1918 2478 1933 L 2458 1961 L 2424 1918 L 2389 1875 L 2394 1635 C 2396 1503 2401 1383 2405 1368 C 2415 1329 2456 1292 2496 1284 C 2522 1279 2530 1273 2530 1256 C 2530 1235 2528 1235 2348 1236 C 2198 1237 2164 1240 2162 1251 C 2160 1260 2178 1274 2209 1287 C 2299 1325 2295 1294 2295 1921 C 2295 2528 2297 2506 2228 2541 C 2205 2553 2193 2565 2196 2573 C 2200 2583 2240 2587 2370 2587 C 2531 2588 2540 2587 2540 2569 z M 3008 2342 C 3121 2080 3138 1803 3058 1520 C 3046 1479 3034 1442 3030 1437 C 3027 1433 3013 1441 3001 1454 L 2978 1479 L 3005 1592 C 3040 1738 3048 1889 3026 2022 C 3010 2121 2960 2287 2934 2328 C 2920 2349 2921 2353 2942 2370 C 2976 2399 2985 2395 3008 2342 z M 1820 2373 C 1819 2368 1813 2354 1805 2340 C 1782 2299 1787 2242 1819 2185 C 1840 2147 1845 2129 1838 2117 C 1833 2108 1832 2095 1835 2090 C 1844 2076 1834 2078 1800 2095 C 1764 2113 1734 2162 1720 2224 C 1711 2267 1712 2278 1734 2326 C 1756 2374 1762 2380 1789 2380 C 1806 2380 1820 2377 1820 2373 z M 846 2306 C 849 2295 837 2229 820 2160 C 777 1985 770 1832 799 1692 C 840 1492 897 1362 1015 1205 C 1174 994 1433 831 1702 774 C 2057 699 2448 818 2710 1081 C 2773 1144 2782 1151 2798 1139 C 2832 1112 2829 1104 2757 1032 C 2624 897 2460 798 2275 741 C 2129 697 2060 686 1915 687 C 1490 687 1098 914 872 1291 C 724 1538 677 1838 739 2136 C 764 2252 803 2342 824 2334 C 833 2331 843 2318 846 2306 z M 2120 1746 C 2120 1572 2116 1480 2105 1425 C 2066 1219 1896 1051 1695 1020 C 1591 1004 1471 1030 1376 1091 C 1321 1125 1279 1200 1300 1226 C 1320 1249 1337 1242 1380 1191 C 1449 1109 1574 1062 1672 1080 C 1780 1101 1886 1164 1939 1240 C 2008 1338 2013 1368 2018 1692 L 2022 1979 L 2048 1983 C 2063 1985 2085 1988 2098 1989 L 2120 1990 L 2120 1746 z M 2912 1936 C 2933 1888 2901 1859 2850 1880 C 2817 1894 2811 1920 2836 1944 C 2860 1969 2899 1964 2912 1936 z M 1891 1504 C 1936 1459 1946 1411 1916 1382 C 1900 1366 1898 1366 1889 1382 C 1884 1392 1878 1403 1877 1407 C 1876 1412 1860 1428 1841 1445 C 1748 1526 1606 1425 1625 1290 C 1629 1261 1644 1223 1660 1198 C 1694 1148 1686 1133 1637 1149 C 1572 1171 1540 1225 1540 1313 C 1540 1379 1566 1436 1615 1479 C 1676 1532 1726 1551 1793 1547 C 1845 1544 1855 1540 1891 1504 z M 1798 1233 C 1833 1186 1832 1170 1796 1170 C 1769 1170 1749 1191 1727 1240 C 1703 1297 1701 1307 1713 1320 C 1722 1329 1730 1325 1745 1304 C 1756 1289 1780 1257 1798 1233 z M 2524 1138 C 2521 1134 2524 1130 2529 1130 C 2548 1130 2541 1104 2518 1083 C 2450 1021 2294 976 2145 975 C 2059 975 2038 978 1991 1000 C 1938 1025 1938 1025 1956 1047 C 1975 1068 1976 1068 2045 1053 C 2181 1024 2377 1054 2466 1118 C 2503 1145 2535 1156 2524 1138 z" stroke-linecap="round"></path>
</g>
</svg></svg></g></g></svg></g><g id="dark-icon"><svg xmlns="http://www.w3.org/2000/svg" version="1.1" xmlns:xlink="http://www.w3.org/1999/xlink" xmlns:svgjs="http://svgjs.dev/svgjs" width="1000" height="1000"><g clip-path="url(#SvgjsClipPath1168)"><rect width="1000" height="1000" fill="#ffffff"></rect><g transform="matrix(0.9259259259259259,0,0,0.9259259259259259,0,0.000001638023945815803)"><svg xmlns="http://www.w3.org/2000/svg" version="1.1" xmlns:xlink="http://www.w3.org/1999/xlink" xmlns:svgjs="http://svgjs.dev/svgjs" width="1080" height="1080"><svg xmlns="http://www.w3.org/2000/svg" xmlns:xlink="http://www.w3.org/1999/xlink" version="1.1" width="1080" height="1080" viewBox="0 0 1080 1080" xml:space="preserve">
<desc>Created with Fabric.js 5.2.4</desc>
<defs>
<clipPath id="SvgjsClipPath1168"><rect width="1000" height="1000" x="0" y="0" rx="500" ry="500"></rect></clipPath></defs>
<rect x="0" y="0" width="100%" height="100%" fill="transparent"></rect>
<g transform="matrix(1 0 0 1 540 540)" id="f017b0b4-1826-4fe6-bd03-384e78c292b5">
</g>
<g transform="matrix(1 0 0 1 540 540)" id="e881d8cc-768d-413c-9a77-b564ba569543">
<rect style="stroke: none; stroke-width: 1; stroke-dasharray: none; stroke-linecap: butt; stroke-dashoffset: 0; stroke-linejoin: miter; stroke-miterlimit: 4; fill: rgb(255,255,255); fill-rule: nonzero; opacity: 1; visibility: hidden;" vector-effect="non-scaling-stroke" x="-540" y="-540" rx="0" ry="0" width="1080" height="1080"></rect>
</g>
<g transform="matrix(0.28 0 0 -0.28 540 540)">
<path style="stroke: none; stroke-width: 1; stroke-dasharray: none; stroke-linecap: butt; stroke-dashoffset: 0; stroke-linejoin: miter; stroke-miterlimit: 4; fill: rgb(49,94,137); fill-rule: nonzero; opacity: 1;" vector-effect="non-scaling-stroke" transform=" translate(-1890, -1930)" d="M 0 1930 L 0 0 L 1890 0 L 3780 0 L 3780 1930 L 3780 3860 L 1890 3860 L 0 3860 L 0 1930 z M 2135 3055 C 2301 3025 2469 2954 2610 2854 C 2697 2793 2780 2718 2780 2702 C 2780 2695 2765 2690 2747 2690 C 2721 2690 2692 2706 2621 2760 C 2429 2905 2265 2971 2023 3000 C 1736 3035 1386 2920 1164 2719 C 1116 2676 1107 2671 1078 2677 C 1060 2680 1043 2685 1041 2687 C 1032 2694 1126 2784 1205 2842 C 1460 3034 1807 3113 2135 3055 z M 2280 2750 C 2280 2735 2273 2730 2254 2730 C 2216 2730 2164 2702 2143 2672 C 2127 2648 2124 2613 2120 2361 L 2115 2076 L 2085 2068 C 2069 2063 2044 2057 2030 2054 C 2017 2051 2001 2045 1995 2041 C 1990 2036 1955 2023 1919 2011 C 1826 1981 1782 1927 1815 1884 C 1834 1859 1834 1830 1815 1830 C 1793 1830 1732 1899 1724 1933 C 1715 1976 1743 2009 1830 2053 C 1897 2087 1911 2091 1963 2088 L 2021 2084 L 2018 2371 C 2015 2641 2014 2659 1995 2680 C 1971 2707 1920 2730 1885 2730 C 1858 2730 1857 2731 1866 2754 C 1871 2768 1899 2770 2076 2770 C 2273 2770 2280 2769 2280 2750 z M 944 2581 C 981 2575 1000 2565 1018 2544 C 1038 2519 1141 2317 1239 2108 C 1256 2070 1274 2040 1278 2040 C 1283 2040 1302 2075 1320 2118 C 1338 2160 1384 2258 1422 2335 C 1473 2439 1490 2482 1486 2503 C 1483 2518 1485 2530 1490 2530 C 1496 2530 1505 2541 1510 2555 C 1520 2582 1517 2581 1757 2585 C 1784 2585 1796 2580 1798 2569 C 1800 2557 1790 2551 1755 2547 C 1697 2539 1658 2516 1634 2476 C 1617 2448 1615 2414 1610 2065 C 1604 1655 1604 1657 1544 1538 C 1486 1422 1338 1308 1229 1294 C 1084 1274 940 1401 940 1547 C 940 1562 951 1598 964 1627 C 1021 1749 1196 1768 1267 1661 C 1297 1617 1296 1585 1265 1554 C 1234 1524 1224 1528 1215 1577 C 1205 1633 1175 1660 1124 1660 C 1088 1660 1077 1655 1051 1625 C 1026 1597 1020 1580 1020 1545 C 1020 1465 1053 1412 1125 1379 C 1213 1338 1319 1368 1401 1458 C 1459 1521 1484 1571 1499 1656 C 1512 1726 1514 2328 1501 2314 C 1496 2309 1458 2226 1415 2130 C 1373 2034 1323 1921 1303 1880 L 1269 1806 L 1240 1855 C 1224 1883 1169 1996 1119 2108 C 1068 2219 1026 2309 1024 2308 C 1023 2306 1019 2215 1015 2105 C 1012 1995 1005 1889 1000 1870 C 984 1811 820 1671 820 1718 C 820 1722 844 1756 872 1794 L 925 1864 L 932 2034 C 936 2128 938 2251 937 2307 C 934 2402 932 2412 905 2451 C 888 2475 855 2504 830 2518 C 792 2538 775 2541 718 2537 C 652 2533 650 2534 650 2556 C 650 2569 657 2580 668 2583 C 697 2591 892 2589 944 2581 z M 2540 2569 C 2540 2556 2533 2550 2518 2550 C 2484 2550 2433 2515 2413 2478 C 2398 2450 2395 2414 2392 2242 C 2390 2130 2391 2031 2395 2023 C 2400 2009 2403 2009 2419 2026 C 2428 2037 2445 2059 2456 2075 C 2483 2117 2568 2231 2593 2257 C 2611 2278 2663 2348 2735 2451 C 2751 2473 2758 2493 2754 2504 C 2746 2524 2699 2550 2670 2550 C 2655 2550 2650 2555 2652 2568 C 2655 2583 2676 2585 2888 2588 C 3120 2590 3160 2586 3160 2556 C 3160 2546 3137 2541 3072 2538 C 2921 2531 2860 2488 2687 2265 C 2631 2194 2574 2121 2559 2103 L 2531 2071 L 2579 1983 C 2606 1935 2674 1801 2731 1686 C 2844 1459 2887 1400 2993 1327 C 3060 1281 3108 1272 3170 1295 C 3248 1324 3260 1325 3260 1302 C 3260 1275 3208 1232 3164 1224 C 3144 1220 3098 1220 3062 1222 C 2968 1229 2892 1267 2809 1350 C 2748 1412 2733 1436 2620 1661 C 2553 1795 2489 1918 2478 1933 L 2458 1961 L 2424 1918 L 2389 1875 L 2394 1635 C 2396 1503 2401 1383 2405 1368 C 2415 1329 2456 1292 2496 1284 C 2522 1279 2530 1273 2530 1256 C 2530 1235 2528 1235 2348 1236 C 2198 1237 2164 1240 2162 1251 C 2160 1260 2178 1274 2209 1287 C 2299 1325 2295 1294 2295 1921 C 2295 2528 2297 2506 2228 2541 C 2205 2553 2193 2565 2196 2573 C 2200 2583 2240 2587 2370 2587 C 2531 2588 2540 2587 2540 2569 z M 3008 2342 C 3121 2080 3138 1803 3058 1520 C 3046 1479 3034 1442 3030 1437 C 3027 1433 3013 1441 3001 1454 L 2978 1479 L 3005 1592 C 3040 1738 3048 1889 3026 2022 C 3010 2121 2960 2287 2934 2328 C 2920 2349 2921 2353 2942 2370 C 2976 2399 2985 2395 3008 2342 z M 1820 2373 C 1819 2368 1813 2354 1805 2340 C 1782 2299 1787 2242 1819 2185 C 1840 2147 1845 2129 1838 2117 C 1833 2108 1832 2095 1835 2090 C 1844 2076 1834 2078 1800 2095 C 1764 2113 1734 2162 1720 2224 C 1711 2267 1712 2278 1734 2326 C 1756 2374 1762 2380 1789 2380 C 1806 2380 1820 2377 1820 2373 z M 846 2306 C 849 2295 837 2229 820 2160 C 777 1985 770 1832 799 1692 C 840 1492 897 1362 1015 1205 C 1174 994 1433 831 1702 774 C 2057 699 2448 818 2710 1081 C 2773 1144 2782 1151 2798 1139 C 2832 1112 2829 1104 2757 1032 C 2624 897 2460 798 2275 741 C 2129 697 2060 686 1915 687 C 1490 687 1098 914 872 1291 C 724 1538 677 1838 739 2136 C 764 2252 803 2342 824 2334 C 833 2331 843 2318 846 2306 z M 2120 1746 C 2120 1572 2116 1480 2105 1425 C 2066 1219 1896 1051 1695 1020 C 1591 1004 1471 1030 1376 1091 C 1321 1125 1279 1200 1300 1226 C 1320 1249 1337 1242 1380 1191 C 1449 1109 1574 1062 1672 1080 C 1780 1101 1886 1164 1939 1240 C 2008 1338 2013 1368 2018 1692 L 2022 1979 L 2048 1983 C 2063 1985 2085 1988 2098 1989 L 2120 1990 L 2120 1746 z M 2912 1936 C 2933 1888 2901 1859 2850 1880 C 2817 1894 2811 1920 2836 1944 C 2860 1969 2899 1964 2912 1936 z M 1891 1504 C 1936 1459 1946 1411 1916 1382 C 1900 1366 1898 1366 1889 1382 C 1884 1392 1878 1403 1877 1407 C 1876 1412 1860 1428 1841 1445 C 1748 1526 1606 1425 1625 1290 C 1629 1261 1644 1223 1660 1198 C 1694 1148 1686 1133 1637 1149 C 1572 1171 1540 1225 1540 1313 C 1540 1379 1566 1436 1615 1479 C 1676 1532 1726 1551 1793 1547 C 1845 1544 1855 1540 1891 1504 z M 1798 1233 C 1833 1186 1832 1170 1796 1170 C 1769 1170 1749 1191 1727 1240 C 1703 1297 1701 1307 1713 1320 C 1722 1329 1730 1325 1745 1304 C 1756 1289 1780 1257 1798 1233 z M 2524 1138 C 2521 1134 2524 1130 2529 1130 C 2548 1130 2541 1104 2518 1083 C 2450 1021 2294 976 2145 975 C 2059 975 2038 978 1991 1000 C 1938 1025 1938 1025 1956 1047 C 1975 1068 1976 1068 2045 1053 C 2181 1024 2377 1054 2466 1118 C 2503 1145 2535 1156 2524 1138 z" stroke-linecap="round"></path>
</g>
</svg></svg></g></g></svg></g></svg>